<?xml version="1.0" encoding="utf-8"?>
<!-- Generator: Adobe Illustrator 19.2.1, SVG Export Plug-In . SVG Version: 6.00 Build 0)  -->
<svg version="1.1" id="layer" xmlns="http://www.w3.org/2000/svg" xmlns:xlink="http://www.w3.org/1999/xlink" x="0px" y="0px"
	 viewBox="0 0 652 652" style="enable-background:new 0 0 652 652;" xml:space="preserve">
<style type="text/css">
	.st0{fill:#737271;}
	.st1{fill:#0033A0;}
	.st2{fill:#2CA6E0;}
</style>
<g>
	<g>
		<rect x="80.1" y="376.1" class="st0" width="5.2" height="44.2"/>
		<polygon class="st0" points="121.9,376.1 128.6,376.1 154.2,412.8 154.3,412.8 154.3,376.1 159.6,376.1 159.6,420.3 152.9,420.3 
			127.3,383.6 127.2,383.6 127.2,420.3 121.9,420.3 		"/>
		<g>
			<path class="st0" d="M217.1,383.9c-1.7-2.8-4.9-4.1-8.1-4.1c-4.6,0-9.4,2.2-9.4,7.4c0,4.1,2.2,5.9,9.3,8.1
				c6.9,2.2,13.2,4.4,13.2,13.1c0,8.8-7.6,12.9-15.6,12.9c-5.1,0-10.6-1.7-13.6-6.1l4.5-3.7c1.9,3.2,5.6,4.9,9.4,4.9
				c4.5,0,9.6-2.6,9.6-7.7c0-5.4-3.7-6.4-11.6-9c-6.2-2.1-11-4.8-11-12.2c0-8.5,7.3-12.7,15.1-12.7c4.9,0,9.1,1.4,12.4,5.2
				L217.1,383.9z"/>
			<polygon class="st0" points="286.1,380.9 271.5,380.9 271.5,420.3 266.3,420.3 266.3,380.9 251.6,380.9 251.6,376.1 286.1,376.1 
							"/>
			<rect x="317.9" y="376.1" class="st0" width="5.2" height="44.2"/>
			<polygon class="st0" points="389.4,380.9 374.8,380.9 374.8,420.3 369.6,420.3 369.6,380.9 354.9,380.9 354.9,376.1 389.4,376.1 
							"/>
			<path class="st0" d="M454.4,403.4c0,9.6-4.5,18-16.7,18c-12.2,0-16.7-8.4-16.7-18v-27.4h5.2v26.6c0,7.1,2.6,13.9,11.4,13.9
				c8.8,0,11.4-6.7,11.4-13.9v-26.6h5.2V403.4z"/>
			<polygon class="st0" points="520.4,380.9 505.8,380.9 505.8,420.3 500.6,420.3 500.6,380.9 486,380.9 486,376.1 520.4,376.1 			
				"/>
			<polygon class="st0" points="552.2,376.1 580,376.1 580,380.9 557.5,380.9 557.5,394.8 578.5,394.8 578.5,399.7 557.5,399.7 
				557.5,415.4 581.1,415.4 581.1,420.3 552.2,420.3 			"/>
			<path class="st1" d="M318.2,222.7h-1.1l-57,132.7h20.7l7.5-20.4h58.1l7.5,20.4h21.6L318.2,222.7z M295.8,316.8l21.6-49.2
				c0,0,21.4,49.2,21.2,49.2H295.8z"/>
			<rect x="385.4" y="222.6" class="st1" width="20.9" height="132.8"/>
			<polygon class="st1" points="455.7,241.2 416.3,241.2 416.3,222.6 516.1,222.6 516.1,241.2 476.6,241.2 476.6,355.4 455.7,355.4 
							"/>
			<polygon class="st1" points="560.4,241.2 520.9,241.2 520.9,222.6 620.7,222.6 620.7,241.2 581.3,241.2 581.3,355.4 560.4,355.4 
							"/>
			<path class="st2" d="M57.1,297.6c0,0,0.1-0.1,0.1-0.1l-5-11.1C53.6,289.4,51.9,285.4,57.1,297.6"/>
			<path class="st1" d="M299.8,263.4c-14.8-0.2-51.3,0.8-92.4,3.3c-5.3,0.3-8.8,0.4-14,0.9l-6.5-13.7c3.7-0.7,5.8-1.1,9.6-1.7
				c67.7-10.9,88.9-7.5,95.5-4L299.8,263.4z M161.1,259.1c-27.7,6.2-48.3,12.6-48.6,12.6l-60.2,21.6c1.3,3-0.5-1.1,4.9,11.2
				c22.4-14.5,62.1-27,109.4-33.5L161.1,259.1z"/>
			<polygon class="st1" points="250.7,268 221.5,336.1 167.5,222.7 143.3,222.7 123.4,264.9 146.4,259.2 155.7,237.3 207.4,355.4 
				230.7,355.4 269.8,267.4 			"/>
			<polygon class="st1" points="113.5,285.3 89.3,336.1 40.3,222.7 20.7,222.7 80.1,355.4 103.5,355.4 137,279.6 			"/>
			<path class="st1" d="M290.1,222.7h-19.6l-8.1,18.8l-0.4,0.9c8.2-0.3,14.4-0.1,19.1,0.4l1.4-3.2L290.1,222.7z"/>
		</g>
	</g>
</g>
</svg>
