<?xml version="1.0" encoding="utf-8"?>
<!-- Generator: Adobe Illustrator 27.5.0, SVG Export Plug-In . SVG Version: 6.00 Build 0)  -->
<svg version="1.1" id="layer" xmlns="http://www.w3.org/2000/svg" xmlns:xlink="http://www.w3.org/1999/xlink" x="0px" y="0px"
	 viewBox="0 0 652 652" style="enable-background:new 0 0 652 652;" xml:space="preserve">
<style type="text/css">
	.st0{fill:#FFFFFF;}
</style>
<rect x="80.1" y="376.1" class="st0" width="5.2" height="44.2"/>
<polygon class="st0" points="121.9,376.1 128.6,376.1 154.2,412.8 154.3,412.8 154.3,376.1 159.6,376.1 159.6,420.3 152.9,420.3 
	127.3,383.6 127.2,383.6 127.2,420.3 121.9,420.3 "/>
<path class="st0" d="M217.1,383.9c-1.7-2.8-4.9-4.1-8.1-4.1c-4.6,0-9.4,2.2-9.4,7.4c0,4.1,2.2,5.9,9.3,8.1
	c6.9,2.2,13.2,4.4,13.2,13.1c0,8.8-7.6,12.9-15.6,12.9c-5.1,0-10.6-1.7-13.6-6.1l4.5-3.7c1.9,3.2,5.6,4.9,9.4,4.9
	c4.5,0,9.6-2.6,9.6-7.7c0-5.4-3.7-6.4-11.6-9c-6.2-2.1-11-4.8-11-12.2c0-8.5,7.3-12.7,15.1-12.7c4.9,0,9.1,1.4,12.4,5.2L217.1,383.9
	z"/>
<polygon class="st0" points="286.1,380.9 271.5,380.9 271.5,420.3 266.3,420.3 266.3,380.9 251.6,380.9 251.6,376.1 286.1,376.1 "/>
<rect x="317.9" y="376.1" class="st0" width="5.2" height="44.2"/>
<polygon class="st0" points="389.4,380.9 374.8,380.9 374.8,420.3 369.6,420.3 369.6,380.9 354.9,380.9 354.9,376.1 389.4,376.1 "/>
<path class="st0" d="M454.4,403.4c0,9.6-4.5,18-16.7,18s-16.7-8.4-16.7-18V376h5.2v26.6c0,7.1,2.6,13.9,11.4,13.9
	s11.4-6.7,11.4-13.9V376h5.2v27.4H454.4z"/>
<polygon class="st0" points="520.4,380.9 505.8,380.9 505.8,420.3 500.6,420.3 500.6,380.9 486,380.9 486,376.1 520.4,376.1 "/>
<polygon class="st0" points="552.2,376.1 580,376.1 580,380.9 557.5,380.9 557.5,394.8 578.5,394.8 578.5,399.7 557.5,399.7 
	557.5,415.4 581.1,415.4 581.1,420.3 552.2,420.3 "/>
<g>
	<path class="st0" d="M137.7,220.4l0.2-0.2l-9.9-23.9C130.8,202.8,127.5,194.2,137.7,220.4"/>
	<path class="st0" d="M616,146.9c-29.2-0.4-101.1,1.7-182.1,7.1c-10.4,0.6-17.3,0.9-27.6,1.9l-12.8-29.5c7.3-1.5,11.4-2.4,18.9-3.7
		c133.4-23.4,175.2-16.1,188.2-8.6L616,146.9z M342.7,137.7c-54.6,13.3-95.2,27.1-95.8,27.1l-118.6,46.4c2.6,6.4-1-2.4,9.7,24.1
		c44.1-31.2,122.4-58,215.6-72L342.7,137.7z"/>
	<polygon class="st0" points="519.2,156.8 461.7,303.2 355.3,59.4 307.6,59.4 268.4,150.1 313.7,137.9 332,90.8 433.9,344.7 
		479.8,344.7 556.9,155.5 	"/>
	<polygon class="st0" points="248.9,194 201.2,303.2 104.6,59.4 66,59.4 183.1,344.7 229.2,344.7 295.2,181.7 	"/>
	<path class="st0" d="M596.9,59.4h-38.6l-16,40.4l-0.8,1.9c16.2-0.6,28.4-0.2,37.6,0.9l2.8-6.9L596.9,59.4z"/>
</g>
</svg>
